<?xml version="1.0" encoding="UTF-8"?>
<svg width="24" height="24" viewBox="0 0 48 48" xmlns="http://www.w3.org/2000/svg" role="img" aria-label="Google">
  <path fill="#EA4335" d="M24 9.5c3.54 0 6.02 1.53 7.4 2.8l5.1-5.1C33.35 4.36 29.02 2 24 2 14.73 2 6.9 7.4 3.9 15.2l6.2 4.8C12.1 13.7 17.6 9.5 24 9.5z"/>
  <path fill="#4285F4" d="M46 24c0-1.54-.14-3.02-.4-4.45H24v8.45h12.4c-.53 2.86-2.13 5.28-4.55 6.92l6.95 5.38C43.6 36.1 46 30.6 46 24z"/>
  <path fill="#FBBC05" d="M10.1 28.8A14.6 14.6 0 0 1 9.3 24c0-1.67.3-3.28.8-4.8l-6.2-4.8A22 22 0 0 0 2 24c0 3.56.86 6.92 2.4 9.9l5.7-5.1z"/>
  <path fill="#34A853" d="M24 46c5.02 0 9.25-1.66 12.35-4.5l-6.95-5.38c-1.93 1.3-4.4 2.08-7.4 2.08-6.4 0-11.9-4.2-13.9-10l-5.7 5.1C6.9 40.6 14.73 46 24 46z"/>
</svg>
